<?xml version="1.0" encoding="utf-8"?>
<!-- Generator: Adobe Illustrator 24.2.1, SVG Export Plug-In . SVG Version: 6.00 Build 0)  -->
<svg version="1.1" id="Layer_2_1_" xmlns="http://www.w3.org/2000/svg" xmlns:xlink="http://www.w3.org/1999/xlink" x="0px" y="0px"
	 viewBox="0 0 262.6 101.7" style="enable-background:new 0 0 262.6 101.7;" xml:space="preserve">
<style type="text/css">
	.st0{fill-rule:evenodd;clip-rule:evenodd;fill:#FFFFFF;}
	.st1{fill:none;stroke:#000000;stroke-width:2.0039;stroke-miterlimit:10;}
	.st2{clip-path:url(#SVGID_2_);}
	.st3{fill:#FFFFFF;}
	.st4{fill:#0A030B;}
	.st5{fill:none;stroke:#231F20;stroke-width:2.0039;stroke-linecap:round;stroke-linejoin:round;stroke-miterlimit:10;}
	
		.st6{clip-path:url(#SVGID_4_);fill:none;stroke:#000000;stroke-width:2.0039;stroke-linecap:round;stroke-linejoin:round;stroke-miterlimit:10;}
	
		.st7{clip-path:url(#SVGID_6_);fill:none;stroke:#000000;stroke-width:2.0039;stroke-linecap:round;stroke-linejoin:round;stroke-miterlimit:10;}
</style>
<g>
	<g>
		<path d="M135.7,23c-1-1.6-2.4-2.8-4.2-3.8c-1.8-1-4-1.4-6.5-1.4c-3.4,0-6.4,1-9.1,3c-2.3,1.7-4,4.1-5.1,7.1c-0.3-1-0.6-2-1-2.9
			c-0.6-1.4-1.4-2.7-2.4-3.7c-1-1.1-2.3-1.9-3.8-2.5c-1.5-0.6-3.2-0.9-5.2-0.9c-1.6,0-3.1,0.3-4.6,0.8c-1.5,0.5-2.9,1.2-4.1,2.2
			c-1.2,1-2.4,2.2-3.4,3.5c-0.6,0.8-1.1,1.6-1.5,2.5c0,0,0,0,0,0l-0.2-5.4c0-0.8-0.1-1.5-0.1-2c0-0.3-0.3-0.5-0.5-0.5h-1.8
			c-0.2,0-0.3,0.1-0.4,0.2c-0.1,0.1-0.2,0.3-0.1,0.4c0.1,0.5,0.1,1.2,0.2,2C82,22.2,82,23.1,82,24l0.1,2.6c0,0.9,0,1.6,0,2.2v27.7
			c0,0.3,0.2,0.5,0.5,0.5h1.8c0.3,0,0.5-0.2,0.5-0.5V37.9c0-2.8,0.4-5.3,1.1-7.4c0.7-2.2,1.7-4,2.9-5.5c1.2-1.5,2.6-2.6,4.2-3.4
			c1.6-0.8,3.4-1.2,5.2-1.2c2.1,0,3.8,0.4,5.1,1.3c1.3,0.9,2.4,2,3.2,3.3c0.8,1.3,1.3,2.8,1.6,4.5c0.3,1.7,0.4,3.3,0.4,4.7v22.2
			c0,0.3,0.2,0.5,0.5,0.5h1.8c0.3,0,0.5-0.2,0.5-0.5V37.9c0-2.8,0.4-5.3,1.1-7.4c0.7-2.2,1.7-4,2.9-5.5c1.2-1.5,2.6-2.6,4.3-3.4
			c1.6-0.8,3.4-1.2,5.2-1.2c2.1,0,3.8,0.4,5.2,1.3c1.4,0.9,2.5,2,3.3,3.3c0.8,1.3,1.4,2.9,1.7,4.5c0.3,1.7,0.5,3.3,0.5,4.7v22.2
			c0,0.3,0.2,0.5,0.5,0.5h1.8c0.3,0,0.5-0.2,0.5-0.5V34.1c0-2-0.2-3.9-0.7-5.8C137.5,26.3,136.8,24.5,135.7,23z"/>
	</g>
	<g>
		<path d="M154.3,18.9h-1.8c-0.3,0-0.5,0.2-0.5,0.5v37.1c0,0.3,0.2,0.5,0.5,0.5h1.8c0.3,0,0.5-0.2,0.5-0.5V19.4
			C154.8,19.1,154.6,18.9,154.3,18.9z"/>
	</g>
	<g>
		<path d="M151.7,1.5C151.3,2,151,2.6,151,3.4c0,0.8,0.2,1.4,0.7,1.9c0.5,0.5,1,0.7,1.7,0.7c0.6,0,1.1-0.2,1.6-0.7
			c0.5-0.5,0.8-1.1,0.8-1.9c0-0.7-0.2-1.3-0.7-1.8C154.1,0.6,152.7,0.6,151.7,1.5z"/>
	</g>
	<g>
		<path d="M185.7,17.8c-0.3-0.1-0.6-0.1-0.8-0.1h-0.7c-2.8,0-5.5,0.9-8,2.6c-1.9,1.4-3.4,3.4-4.5,6.1l-0.2-5.1c0-0.8-0.1-1.5-0.1-2
			c0-0.3-0.3-0.5-0.5-0.5h-1.8c-0.2,0-0.3,0.1-0.4,0.2c-0.1,0.1-0.2,0.3-0.1,0.4c0,0.5,0.1,1.2,0.2,2c0.1,0.8,0.1,1.6,0.1,2.5
			l0.1,2.6c0,0.9,0,1.6,0,2.2v27.7c0,0.3,0.2,0.5,0.5,0.5h1.8c0.3,0,0.5-0.2,0.5-0.5V37.3c0-2,0.3-4,0.7-6c0.5-2,1.3-3.9,2.3-5.5
			c1-1.6,2.4-2.9,3.9-3.9c1.6-1,3.5-1.5,5.8-1.5h0.4c0.1,0,0.3,0,0.5,0.1c0.2,0,0.3,0,0.5-0.1c0.1-0.1,0.2-0.3,0.2-0.4v-1.5
			C186.2,18.1,186,17.9,185.7,17.8z"/>
	</g>
	<g>
		<path d="M222.4,23.4c-1.8-1.8-3.9-3.2-6.3-4.1c-2.4-1-5.2-1.5-8.1-1.5c-2.9,0-5.6,0.5-8,1.5c-2.4,1-4.5,2.4-6.3,4.1
			c-1.8,1.8-3.1,3.9-4.1,6.4c-1,2.4-1.4,5.2-1.4,8.1s0.5,5.7,1.4,8.2c1,2.5,2.3,4.6,4.1,6.4c1.8,1.8,3.9,3.2,6.3,4.2
			c2.4,1,5.1,1.5,8,1.5s5.6-0.5,8.1-1.5c2.4-1,4.6-2.4,6.3-4.2c1.8-1.8,3.1-3.9,4.1-6.4c1-2.5,1.4-5.2,1.4-8.2s-0.5-5.7-1.5-8.1
			C225.6,27.3,224.2,25.1,222.4,23.4z M208,55.5c-2.7,0-5-0.5-7.1-1.4c-2.1-0.9-3.9-2.2-5.3-3.8c-1.5-1.6-2.6-3.5-3.4-5.6
			c-0.8-2.1-1.2-4.5-1.2-6.9c0-2.4,0.4-4.7,1.2-6.8c0.8-2.1,1.9-4,3.4-5.6c1.5-1.6,3.3-2.8,5.3-3.7c2.1-0.9,4.5-1.4,7.1-1.4
			c2.7,0,5.1,0.5,7.2,1.4c2.1,0.9,3.9,2.2,5.4,3.7c1.5,1.6,2.6,3.5,3.4,5.6c0.8,2.1,1.2,4.4,1.2,6.8c0,2.4-0.4,4.8-1.2,6.9
			c-0.8,2.1-1.9,4-3.4,5.6c-1.5,1.6-3.3,2.8-5.4,3.8C213.1,55,210.7,55.5,208,55.5z"/>
	</g>
	<g>
		<path d="M259.6,42.3c-0.7-1.2-1.6-2.2-2.7-3c-1.1-0.8-2.3-1.4-3.8-2c-1.4-0.5-2.8-1-4.3-1.3c-1.5-0.4-3-0.8-4.2-1.2
			c-1.2-0.4-2.3-0.9-3.2-1.4c-0.8-0.5-1.5-1.3-2-2.1c-0.5-0.9-0.7-2.1-0.7-3.6c0-1.3,0.3-2.5,0.9-3.4c0.6-0.9,1.3-1.7,2.2-2.3
			c0.9-0.6,1.9-1,2.9-1.3c1.1-0.3,2.1-0.4,3.1-0.4c2.1,0,3.9,0.4,5.4,1.1c1.5,0.7,2.8,1.9,4,3.4c0.2,0.2,0.5,0.3,0.7,0.1l1.5-0.9
			c0.1-0.1,0.2-0.2,0.3-0.4c0-0.1,0-0.3-0.1-0.4c-2.6-3.7-6.6-5.6-11.8-5.6c-1.4,0-2.9,0.2-4.3,0.6c-1.4,0.4-2.7,1-3.8,1.9
			c-1.1,0.8-2.1,1.9-2.7,3.1c-0.7,1.3-1,2.8-1,4.4c0,1.7,0.3,3.1,0.8,4.3c0.5,1.1,1.3,2.1,2.2,2.9c0.9,0.8,2,1.4,3.2,1.9
			c1.2,0.5,2.5,0.9,3.8,1.3c1.2,0.3,2.6,0.7,4,1.1c1.4,0.4,2.7,0.9,3.8,1.5c1.1,0.6,2,1.4,2.8,2.4c0.7,1,1.1,2.3,1.1,3.9
			c0,1.4-0.3,2.6-0.9,3.6c-0.6,1.1-1.3,1.9-2.3,2.7c-0.9,0.7-2,1.3-3.1,1.6c-1.1,0.4-2.3,0.5-3.4,0.5c-4.8,0-8.6-1.8-11.2-5.4
			c-0.2-0.2-0.5-0.3-0.7-0.1l-1.5,1c-0.1,0.1-0.2,0.2-0.2,0.4c0,0.1,0,0.3,0.1,0.4c1.5,2.1,3.4,3.7,5.7,4.8c2.3,1.1,4.9,1.6,7.7,1.6
			c1.7,0,3.3-0.3,4.8-0.8c1.5-0.5,2.9-1.2,4-2.2c1.2-1,2.1-2.1,2.8-3.5c0.7-1.4,1-3,1-4.7C260.6,45,260.3,43.5,259.6,42.3z"/>
	</g>
</g>
<path class="st0" d="M69.4,30c0-5.3-15-9.7-33.6-9.7S2.2,24.7,2.2,30c0,0,0,0,0,0h0c0,0,0,0,0,0.1c0,0.2,0,0.4,0.1,0.6
	C3.1,37.8,5.5,43.2,9,47.6c5.7,7.1,15.1,12.6,28,12.1c11.7-0.4,20.8-5.8,26.3-13.7c2.8-3.9,4.9-8.6,5.7-14.3l-0.2,0
	C69.2,31.1,69.4,30.6,69.4,30z"/>
<g>
	<g>
		<path class="st1" d="M69.1,31.6c-0.8,5.7-3,10.4-5.7,14.3C57.8,53.9,48.8,59.2,37,59.7c-13,0.5-22.4-5-28-12.1
			c-3.6-4.5-6.1-10.1-6.8-17.5"/>
	</g>
</g>
<path class="st1" d="M69.4,30c0,5.3-15,9.7-33.6,9.7S2.2,35.4,2.2,30c0-5.3,15-9.7,33.6-9.7C54.3,20.4,69.4,24.7,69.4,30z"/>
<path class="st1" d="M62.6,29.4c0,3.3-12,6-26.8,6s-26.8-2.7-26.8-6c0-3.3,12-6,26.8-6C50.6,23.4,62.6,26.1,62.6,29.4z"/>
<path class="st1" d="M55.4,29.3c0,1.5-8.8,2.7-19.7,2.7c-10.9,0-19.7-1.2-19.7-2.7c0-1.5,8.8-2.7,19.7-2.7
	C46.6,26.6,55.4,27.8,55.4,29.3z"/>
<g>
	<g>
		<defs>
			<path id="SVGID_1_" d="M54.9,28.3c2-1.8,1.6-14.9,0.2-16c0.9-1.4-0.8-7.8-1.5-9.2c-0.3-2.4-3-5.7-7-5.7c-7.8,0-15.5-0.5-23.3-0.5
				c-3.5,0-5,2.6-4.5,4.9c-1.7,1.2-2.1,3.4-1.2,5.1c-1.8,1.6-1.8,4.5,0.2,6c-1.3,1.2-1.5,2.9-0.7,4.4c-1.6,1.3-1.8,3.5-0.7,5.1
				c-2,1.5-1.6,4.2,0.3,5.8c-0.4,0.2-0.7,0.4-0.7,0.5c0,1.2,8.8,2.1,19.7,2.1c10.9,0,19.7-0.9,19.7-2.1
				C55.4,28.6,55.2,28.4,54.9,28.3z"/>
		</defs>
		<clipPath id="SVGID_2_">
			<use xlink:href="#SVGID_1_"  style="overflow:visible;"/>
		</clipPath>
		<g class="st2">
			<path class="st3" d="M48,31c0.7-1.7,0.9-5.1-1.3-8.2c2.7-3.8,5.5-13.7,2.3-20.4c-3.8,3.5-7.8,10.2-8.4,14.3
				c-2-0.3-5.8-0.7-10.1,0c-1.1-1.1-3-9.1-8.5-14.3c-2.8,7.5-0.5,16.2,2.3,20.9c0,0-2.1,3.3-1.3,7.7L23,32.9l14.4,1.4l10.4-1.8
				L48,31z"/>
			<ellipse class="st4" cx="40.6" cy="23" rx="1.3" ry="1.2"/>
			<ellipse class="st4" cx="30.5" cy="23" rx="1.3" ry="1.2"/>
			<path class="st5" d="M23.1,30c-0.9-4.4,1.3-7.7,1.3-7.7C21.5,17.6,19.2,9,22,1.4c5.4,5.2,7.4,13.2,8.5,14.3
				c4.3-0.7,8.2-0.3,10.1,0c0.6-4.1,4.6-10.8,8.4-14.3c3.2,6.7,0.4,16.5-2.3,20.4c2.2,3.1,2,6.5,1.3,8.2"/>
			<polyline class="st5" points="32.1,27.3 35.5,30.5 39,27.3 			"/>
		</g>
	</g>
	<g>
		<defs>
			<path id="SVGID_3_" d="M54.9,28.3c2-1.8,1.6-14.9,0.2-16c0.9-1.4-0.8-7.8-1.5-9.2c-0.3-2.4-3-5.7-7-5.7c-7.8,0-15.5-0.5-23.3-0.5
				c-3.5,0-5,2.6-4.5,4.9c-1.7,1.2-2.1,3.4-1.2,5.1c-1.8,1.6-1.8,4.5,0.2,6c-1.3,1.2-1.5,2.9-0.7,4.4c-1.6,1.3-1.8,3.5-0.7,5.1
				c-2,1.5-1.6,4.2,0.3,5.8c-0.4,0.2-0.7,0.4-0.7,0.5c0,1.2,8.8,2.1,19.7,2.1c10.9,0,19.7-0.9,19.7-2.1
				C55.4,28.6,55.2,28.4,54.9,28.3z"/>
		</defs>
		<clipPath id="SVGID_4_">
			<use xlink:href="#SVGID_3_"  style="overflow:visible;"/>
		</clipPath>
		<path class="st6" d="M44.8,15.7c1.4-4.7,1.7-5.5,1.7-5.5"/>
	</g>
	<g>
		<defs>
			<path id="SVGID_5_" d="M54.9,28.3c2-1.8,1.6-14.9,0.2-16c0.9-1.4-0.8-7.8-1.5-9.2c-0.3-2.4-3-5.7-7-5.7c-7.8,0-15.5-0.5-23.3-0.5
				c-3.5,0-5,2.6-4.5,4.9c-1.7,1.2-2.1,3.4-1.2,5.1c-1.8,1.6-1.8,4.5,0.2,6c-1.3,1.2-1.5,2.9-0.7,4.4c-1.6,1.3-1.8,3.5-0.7,5.1
				c-2,1.5-1.6,4.2,0.3,5.8c-0.4,0.2-0.7,0.4-0.7,0.5c0,1.2,8.8,2.1,19.7,2.1c10.9,0,19.7-0.9,19.7-2.1
				C55.4,28.6,55.2,28.4,54.9,28.3z"/>
		</defs>
		<clipPath id="SVGID_6_">
			<use xlink:href="#SVGID_5_"  style="overflow:visible;"/>
		</clipPath>
		<path class="st7" d="M25.7,15.7C24.3,11,24,10.2,24,10.2"/>
	</g>
</g>
<path class="st1" d="M8.9,29.4c0,0-0.5,0.9,1.1,6.8"/>
<line class="st1" x1="16.1" y1="29.2" x2="16.8" y2="33.3"/>
<line class="st1" x1="55.5" y1="29.4" x2="54.7" y2="33.5"/>
<path class="st1" d="M62.4,29.4c0,0,0.5,0.9-1.1,6.8"/>
<g>
	<path d="M82.2,81.8h15.3v2.8H82.2V81.8z"/>
	<path d="M108,74h3.1v3.4c1-2.6,2.7-3.8,5.2-3.8c0.3,0,0.5,0,0.8,0v3.3c-0.3,0-0.5,0-0.8,0c-3.4,0-5.2,1.9-5.2,5.4v10.5H108V74z"/>
	<path d="M126.8,93.4c-3.9,0-6.1-2.2-6.1-5.7c0-3.5,2.1-5.4,6.4-5.9c2.6-0.3,4.4-0.4,5.2-0.7c0.9-0.4,0.9-0.8,0.9-2.1
		c0-1.9-1.4-2.9-4.2-2.9c-3,0-4.4,1.2-4.4,3.5h-3c0,0,0-0.1,0-0.1c0-3.8,2.8-6.2,7.5-6.2c5,0,7.3,1.8,7.3,5.8v9.4
		c0,1.3,0.1,1.9,1.2,1.9c0.2,0,0.5,0,0.8-0.1v2.4c-0.7,0.2-1.3,0.3-1.8,0.3c-2.1,0-3.2-0.9-3.2-2.8c0,0,0-0.1,0-0.1
		C131.5,92.3,129.3,93.4,126.8,93.4z M127.2,84.5c-2.3,0.4-3.2,1.3-3.2,3.2c0,1.8,1.2,2.9,3.4,2.9c3.5,0,5.8-1.9,5.8-4.6v-2.8
		C131.4,84.1,129.4,84.1,127.2,84.5z"/>
	<path d="M143.2,66.9h3.1v9.7c1.4-2.1,3.5-3.2,6.1-3.2c4.9,0,8.3,3.8,8.3,10.1c0,6.2-3.3,9.9-8.2,9.9c-2.6,0-4.5-0.9-6.1-3v2.4h-3.1
		V66.9z M151.8,90.5c3.5,0,5.6-2.6,5.6-6.9c0-4.9-2.1-7.5-5.6-7.5c-3.7,0-5.6,2.3-5.6,7.1C146.2,88,148.3,90.5,151.8,90.5z"/>
	<path d="M166.4,66.9h3.1v9.7c1.4-2.1,3.5-3.2,6.1-3.2c4.9,0,8.3,3.8,8.3,10.1c0,6.2-3.3,9.9-8.2,9.9c-2.6,0-4.5-0.9-6.1-3v2.4h-3.1
		V66.9z M174.9,90.5c3.5,0,5.6-2.6,5.6-6.9c0-4.9-2.1-7.5-5.6-7.5c-3.7,0-5.6,2.3-5.6,7.1C169.4,88,171.4,90.5,174.9,90.5z"/>
	<path d="M189.5,66.9h3.2v3.6h-3.2V66.9z M189.5,74h3.2v18.8h-3.2V74z"/>
	<path d="M204.7,90.1c0.4,0,0.9,0,1.7-0.1v2.7c-1,0.2-1.8,0.3-2.5,0.3c-3,0-4-1-4-3.9V76.5H197V74h2.8v-5.3h3.2V74h3.4v2.5H203V88
		C203,89.6,203.3,90.1,204.7,90.1z"/>
	<path d="M234.2,81.2c0-3.3-0.6-4.9-3.5-4.9c-3,0-4.8,1.9-4.8,5.4v11.1h-3.2V81.2c0-3.3-0.6-4.9-3.5-4.9c-3,0-4.8,2-4.8,5.4v11.1
		h-3.2V74h3v2.7c1.4-2.1,3.3-3.1,5.9-3.1c2.4,0,4,0.9,5.1,3c1.6-2,3.5-3,6-3c2.5,0,4.3,0.9,5.3,2.6c0.7,1.3,0.8,2.9,0.8,4.9
		c0,0.2,0,0.4,0,0.5v11.3h-3.2V81.2z"/>
	<path d="M251.2,93.4c-4.9,0-8.2-3.8-8.2-10c0-6.2,3.3-10,8.2-10c2.7,0,4.6,1,6.1,3.2V74h3.1v26.3h-3.1v-10
		C256.1,92.3,254,93.4,251.2,93.4z M252,90.6c3.4,0,5.4-2.6,5.4-7.2c0-4.6-2.1-7.2-5.5-7.2s-5.7,2.6-5.7,6.9
		C246.2,88,248.4,90.6,252,90.6z"/>
</g>
</svg>
