<?xml version="1.0" encoding="utf-8"?>
<!-- Generator: Adobe Illustrator 15.1.0, SVG Export Plug-In . SVG Version: 6.00 Build 0)  -->
<!DOCTYPE svg PUBLIC "-//W3C//DTD SVG 1.1//EN" "http://www.w3.org/Graphics/SVG/1.1/DTD/svg11.dtd">
<svg version="1.1" id="Layer_2" xmlns="http://www.w3.org/2000/svg" xmlns:xlink="http://www.w3.org/1999/xlink" x="0px" y="0px"
	 width="71.927px" height="69.747px" viewBox="0 0 71.927 69.747" enable-background="new 0 0 71.927 69.747" xml:space="preserve">
<path fill="#FFFFFF" d="M69.352,34.044c0-5.338-15.041-9.662-33.599-9.662c-18.559,0-33.599,4.324-33.599,9.662
	c0,0.012,0.003,0.02,0.003,0.029H2.154c0.003,0.019,0.006,0.035,0.007,0.052c0.006,0.19,0.033,0.382,0.077,0.569
	c0.827,7.072,3.279,12.551,6.766,16.908c5.667,7.082,15.09,12.572,28.044,12.084c11.73-0.438,20.756-5.82,26.293-13.729
	c2.751-3.926,4.873-8.633,5.708-14.312l-0.163-0.004C69.188,35.12,69.352,34.59,69.352,34.044z"/>
<g>
	<g>
		<path fill="none" stroke="#000000" stroke-width="2.0039" stroke-miterlimit="10" d="M69.05,35.646
			c-0.836,5.681-2.958,10.388-5.708,14.313c-5.538,7.906-14.562,13.289-26.293,13.728C24.094,64.174,14.67,58.685,9.003,51.603
			c-3.589-4.487-6.099-10.149-6.85-17.529"/>
	</g>
</g>
<path fill="none" stroke="#000000" stroke-width="2.0039" stroke-miterlimit="10" d="M69.352,34.044
	c0,5.341-15.041,9.664-33.599,9.664c-18.559,0-33.599-4.322-33.599-9.664c0-5.338,15.041-9.662,33.599-9.662
	S69.352,28.706,69.352,34.044z"/>
<path fill="none" stroke="#000000" stroke-width="2.0039" stroke-miterlimit="10" d="M62.562,33.441
	c0,3.329-11.997,6.022-26.808,6.022c-14.812,0-26.812-2.693-26.812-6.022c0-3.328,12.001-6.023,26.812-6.023
	C50.564,27.418,62.562,30.114,62.562,33.441z"/>
<path fill="none" stroke="#000000" stroke-width="2.0039" stroke-miterlimit="10" d="M55.441,33.287
	c0,1.473-8.806,2.668-19.679,2.668c-10.866,0-19.678-1.196-19.678-2.668c0-1.477,8.812-2.67,19.678-2.67
	C46.635,30.617,55.441,31.81,55.441,33.287z"/>
<g>
	<g>
		<defs>
			<path id="SVGID_1_" d="M54.943,32.303c2.01-1.753,1.637-14.884,0.17-15.967c0.89-1.373-0.764-7.772-1.468-9.187
				c-0.271-2.381-2.952-5.706-6.958-5.726c-7.762-0.037-15.505-0.464-23.27-0.501c-3.531-0.018-5.027,2.616-4.51,4.875
				C17.186,6.999,16.78,9.23,17.745,10.9c-1.803,1.575-1.75,4.455,0.18,5.958c-1.327,1.16-1.468,2.939-0.697,4.398
				c-1.551,1.301-1.818,3.521-0.749,5.114c-1.986,1.46-1.626,4.248,0.279,5.829c-0.423,0.172-0.672,0.352-0.672,0.538
				c0,1.164,8.812,2.107,19.678,2.107c10.873,0,19.679-0.943,19.679-2.107C55.441,32.589,55.231,32.445,54.943,32.303z"/>
		</defs>
		<clipPath id="SVGID_2_">
			<use xlink:href="#SVGID_1_"  overflow="visible"/>
		</clipPath>
		<g clip-path="url(#SVGID_2_)">
			<path fill="#FFFFFF" d="M48.038,35.007c0.716-1.744,0.904-5.083-1.259-8.204c2.665-3.825,5.514-13.677,2.283-20.362
				c-3.803,3.504-7.846,10.208-8.441,14.281c-1.962-0.286-5.838-0.661-10.148,0c-1.105-1.079-3.034-9.115-8.475-14.281
				c-2.838,7.536-0.536,16.194,2.343,20.851c0,0-2.128,3.267-1.272,7.715l-0.118,1.869l14.393,1.363l10.431-1.826L48.038,35.007z"/>
			<ellipse fill="#0A030B" cx="40.62" cy="26.951" rx="1.27" ry="1.169"/>
			<ellipse fill="#0A030B" cx="30.472" cy="26.951" rx="1.27" ry="1.169"/>
			
				<path fill="none" stroke="#231F20" stroke-width="2.0039" stroke-linecap="round" stroke-linejoin="round" stroke-miterlimit="10" d="
				M23.068,33.985c-0.855-4.447,1.272-7.713,1.272-7.713c-2.878-4.657-5.181-13.316-2.343-20.852
				c5.44,5.167,7.369,13.204,8.475,14.281c4.311-0.661,8.187-0.286,10.148,0c0.597-4.074,4.639-10.775,8.441-14.281
				c3.23,6.687,0.382,16.538-2.283,20.361c2.163,3.121,1.975,6.459,1.259,8.204"/>
			
				<polyline fill="none" stroke="#231F20" stroke-width="2.0039" stroke-linecap="round" stroke-linejoin="round" stroke-miterlimit="10" points="
				32.108,31.318 35.55,34.493 38.991,31.323 			"/>
		</g>
	</g>
	<g>
		<defs>
			<path id="SVGID_3_" d="M54.943,32.303c2.01-1.753,1.637-14.884,0.17-15.967c0.89-1.373-0.764-7.772-1.468-9.187
				c-0.271-2.381-2.952-5.706-6.958-5.726c-7.762-0.037-15.505-0.464-23.27-0.501c-3.531-0.018-5.027,2.616-4.51,4.875
				C17.186,6.999,16.78,9.23,17.745,10.9c-1.803,1.575-1.75,4.455,0.18,5.958c-1.327,1.16-1.468,2.939-0.697,4.398
				c-1.551,1.301-1.818,3.521-0.749,5.114c-1.986,1.46-1.626,4.248,0.279,5.829c-0.423,0.172-0.672,0.352-0.672,0.538
				c0,1.164,8.812,2.107,19.678,2.107c10.873,0,19.679-0.943,19.679-2.107C55.441,32.589,55.231,32.445,54.943,32.303z"/>
		</defs>
		<clipPath id="SVGID_4_">
			<use xlink:href="#SVGID_3_"  overflow="visible"/>
		</clipPath>
		
			<path clip-path="url(#SVGID_4_)" fill="none" stroke="#000000" stroke-width="2.0039" stroke-linecap="round" stroke-linejoin="round" stroke-miterlimit="10" d="
			M44.826,19.673c1.432-4.651,1.741-5.474,1.741-5.474"/>
	</g>
	<g>
		<defs>
			<path id="SVGID_5_" d="M54.943,32.303c2.01-1.753,1.637-14.884,0.17-15.967c0.89-1.373-0.764-7.772-1.468-9.187
				c-0.271-2.381-2.952-5.706-6.958-5.726c-7.762-0.037-15.505-0.464-23.27-0.501c-3.531-0.018-5.027,2.616-4.51,4.875
				C17.186,6.999,16.78,9.23,17.745,10.9c-1.803,1.575-1.75,4.455,0.18,5.958c-1.327,1.16-1.468,2.939-0.697,4.398
				c-1.551,1.301-1.818,3.521-0.749,5.114c-1.986,1.46-1.626,4.248,0.279,5.829c-0.423,0.172-0.672,0.352-0.672,0.538
				c0,1.164,8.812,2.107,19.678,2.107c10.873,0,19.679-0.943,19.679-2.107C55.441,32.589,55.231,32.445,54.943,32.303z"/>
		</defs>
		<clipPath id="SVGID_6_">
			<use xlink:href="#SVGID_5_"  overflow="visible"/>
		</clipPath>
		
			<path clip-path="url(#SVGID_6_)" fill="none" stroke="#000000" stroke-width="2.0039" stroke-linecap="round" stroke-linejoin="round" stroke-miterlimit="10" d="
			M25.726,19.673c-1.431-4.651-1.741-5.474-1.741-5.474"/>
	</g>
</g>
<path fill="none" stroke="#000000" stroke-width="2.0039" stroke-miterlimit="10" d="M8.942,33.441c0,0-0.546,0.901,1.14,6.837"/>
<line fill="none" stroke="#000000" stroke-width="2.0039" stroke-miterlimit="10" x1="16.075" y1="33.235" x2="16.808" y2="37.329"/>
<line fill="none" stroke="#000000" stroke-width="2.0039" stroke-miterlimit="10" x1="55.481" y1="33.441" x2="54.748" y2="37.532"/>
<path fill="none" stroke="#000000" stroke-width="2.0039" stroke-miterlimit="10" d="M62.421,33.441c0,0,0.544,0.901-1.138,6.837"/>
</svg>
