<?xml version="1.0" encoding="utf-8"?>
<!-- Generator: Adobe Illustrator 15.1.0, SVG Export Plug-In . SVG Version: 6.00 Build 0)  -->
<!DOCTYPE svg PUBLIC "-//W3C//DTD SVG 1.1//EN" "http://www.w3.org/Graphics/SVG/1.1/DTD/svg11.dtd">
<svg version="1.1" xmlns="http://www.w3.org/2000/svg" xmlns:xlink="http://www.w3.org/1999/xlink" x="0px" y="0px" width="416.5px"
	 height="54.126px" viewBox="0 0 416.5 54.126" enable-background="new 0 0 416.5 54.126" xml:space="preserve">
<g id="Layer_1">
	<g>
		<g>
			<path d="M95.521,19.882c-0.72-1.097-1.705-1.99-2.932-2.656c-1.233-0.665-2.761-1.001-4.541-1.001
				c-2.361,0-4.501,0.717-6.36,2.131c-1.585,1.205-2.787,2.868-3.583,4.955c-0.179-0.721-0.409-1.406-0.686-2.048
				c-0.43-0.994-1.002-1.874-1.704-2.614c-0.708-0.747-1.593-1.344-2.633-1.776c-1.036-0.43-2.268-0.648-3.661-0.648
				c-1.087,0-2.159,0.177-3.189,0.526c-1.027,0.349-1.992,0.871-2.866,1.55c-0.869,0.676-1.66,1.507-2.353,2.469
				c-0.394,0.547-0.741,1.141-1.037,1.778c-0.001-0.008-0.001-0.015-0.001-0.023l-0.112-3.744c-0.021-0.572-0.049-1.049-0.087-1.431
				c-0.018-0.192-0.18-0.338-0.373-0.338h-1.238c-0.105,0-0.206,0.044-0.276,0.123c-0.072,0.078-0.107,0.183-0.096,0.288
				c0.035,0.373,0.073,0.838,0.111,1.396c0.037,0.558,0.064,1.145,0.083,1.759l0.057,1.83c0.019,0.596,0.028,1.098,0.028,1.508
				v19.36c0,0.207,0.168,0.375,0.375,0.375h1.238c0.207,0,0.375-0.168,0.375-0.375V30.333c0-1.939,0.25-3.689,0.742-5.203
				c0.489-1.505,1.168-2.799,2.017-3.848c0.842-1.039,1.841-1.848,2.968-2.404c1.125-0.553,2.348-0.833,3.634-0.833
				c1.455,0,2.664,0.311,3.592,0.923c0.94,0.622,1.687,1.403,2.216,2.322c0.538,0.931,0.912,1.987,1.109,3.141
				c0.203,1.184,0.305,2.298,0.305,3.313v15.532c0,0.207,0.168,0.375,0.375,0.375h1.237c0.207,0,0.375-0.168,0.375-0.375V30.333
				c0-1.938,0.26-3.688,0.769-5.197c0.509-1.51,1.198-2.806,2.045-3.854c0.842-1.04,1.841-1.848,2.971-2.404
				c1.125-0.553,2.348-0.833,3.632-0.833c1.458,0,2.677,0.311,3.623,0.924c0.961,0.624,1.735,1.407,2.299,2.33
				c0.569,0.934,0.976,1.991,1.211,3.145c0.234,1.172,0.355,2.282,0.355,3.302v15.531c0,0.207,0.167,0.375,0.372,0.375h1.23
				c0.206,0,0.373-0.168,0.373-0.375V27.632c0-1.371-0.153-2.742-0.458-4.08C96.747,22.201,96.231,20.966,95.521,19.882z"/>
		</g>
		<g>
			<path d="M108.482,17.013h-1.238c-0.207,0-0.375,0.168-0.375,0.375v25.889c0,0.207,0.168,0.375,0.375,0.375h1.238
				c0.207,0,0.375-0.168,0.375-0.375V17.388C108.857,17.181,108.689,17.013,108.482,17.013z"/>
		</g>
		<g>
			<path d="M106.697,4.911c-0.334,0.335-0.504,0.765-0.504,1.278c0,0.551,0.17,1,0.504,1.334s0.727,0.504,1.166,0.504
				c0.396,0,0.777-0.167,1.129-0.495c0.359-0.335,0.541-0.787,0.541-1.344c0-0.512-0.17-0.942-0.504-1.279
				C108.357,4.243,107.367,4.243,106.697,4.911z"/>
		</g>
		<g>
			<path d="M130.443,16.289c-0.215-0.042-0.406-0.063-0.576-0.063h-0.508c-1.984,0-3.857,0.62-5.564,1.843
				c-1.33,0.953-2.389,2.388-3.154,4.279l-0.106-3.565c-0.021-0.572-0.049-1.049-0.086-1.431c-0.021-0.192-0.183-0.338-0.373-0.338
				h-1.237c-0.105,0-0.205,0.044-0.277,0.123c-0.07,0.078-0.105,0.183-0.096,0.288c0.034,0.373,0.073,0.838,0.11,1.396
				s0.063,1.145,0.084,1.759l0.058,1.83c0.018,0.596,0.026,1.098,0.026,1.508v19.359c0,0.207,0.168,0.375,0.375,0.375h1.238
				c0.207,0,0.375-0.168,0.375-0.375V29.884c0-1.395,0.176-2.812,0.522-4.217c0.346-1.4,0.889-2.689,1.613-3.829
				c0.717-1.129,1.643-2.056,2.754-2.754c1.096-0.69,2.447-1.04,4.02-1.04h0.312c0.099,0,0.209,0.015,0.332,0.045
				c0.108,0.027,0.229,0.002,0.32-0.069c0.092-0.071,0.146-0.18,0.146-0.295v-1.069C130.748,16.478,130.621,16.322,130.443,16.289z"
				/>
		</g>
		<g>
			<path d="M156.074,20.162c-1.232-1.231-2.723-2.206-4.43-2.896c-1.707-0.69-3.6-1.04-5.627-1.04c-2.029,0-3.912,0.35-5.603,1.041
				c-1.688,0.69-3.168,1.665-4.399,2.896c-1.23,1.232-2.197,2.724-2.869,4.436c-0.67,1.705-1.01,3.617-1.01,5.68
				s0.34,3.982,1.01,5.707c0.672,1.73,1.637,3.24,2.867,4.488c1.231,1.252,2.713,2.236,4.401,2.927
				c1.689,0.69,3.574,1.041,5.603,1.041c2.027,0,3.92-0.351,5.627-1.04c1.709-0.691,3.199-1.676,4.432-2.928
				c1.23-1.248,2.195-2.758,2.869-4.488c0.67-1.725,1.01-3.645,1.01-5.707s-0.34-3.975-1.012-5.68
				C158.271,22.885,157.305,21.395,156.074,20.162z M146.018,42.621c-1.853,0-3.523-0.33-4.967-0.98
				c-1.449-0.65-2.705-1.541-3.734-2.643c-1.031-1.104-1.828-2.414-2.371-3.896c-0.545-1.489-0.82-3.112-0.82-4.823
				c0-1.673,0.275-3.276,0.82-4.769c0.543-1.483,1.34-2.794,2.371-3.897c1.029-1.102,2.283-1.981,3.73-2.613
				c1.444-0.633,3.116-0.954,4.971-0.954c1.852,0,3.535,0.321,5,0.954c1.465,0.633,2.729,1.512,3.758,2.613
				c1.029,1.103,1.828,2.414,2.369,3.897c0.547,1.492,0.822,3.098,0.822,4.769c0,1.709-0.275,3.332-0.822,4.823
				c-0.541,1.482-1.338,2.794-2.369,3.896c-1.029,1.102-2.295,1.99-3.762,2.643C149.549,42.291,147.869,42.621,146.018,42.621z"/>
		</g>
		<g>
			<path d="M182.055,33.417c-0.459-0.834-1.084-1.539-1.855-2.094c-0.754-0.542-1.637-1.003-2.621-1.37
				c-0.965-0.358-1.971-0.675-2.996-0.942c-1.068-0.256-2.064-0.527-2.961-0.809c-0.865-0.271-1.609-0.605-2.215-0.998
				c-0.58-0.375-1.039-0.877-1.363-1.492c-0.326-0.617-0.49-1.468-0.49-2.527c0-0.939,0.199-1.745,0.595-2.395
				c0.397-0.661,0.907-1.198,1.516-1.597c0.617-0.405,1.308-0.7,2.05-0.877c0.754-0.18,1.481-0.271,2.164-0.271
				c1.471,0,2.737,0.261,3.77,0.776c1.033,0.516,1.975,1.323,2.797,2.397c0.115,0.15,0.324,0.189,0.486,0.097l1.067-0.619
				c0.093-0.053,0.156-0.141,0.181-0.244c0.021-0.103,0-0.21-0.062-0.296c-1.83-2.608-4.603-3.93-8.24-3.93
				c-1.008,0-2.02,0.147-3.004,0.438c-0.993,0.292-1.896,0.728-2.676,1.294c-0.791,0.574-1.435,1.307-1.91,2.178
				c-0.479,0.878-0.721,1.923-0.721,3.106c0,1.18,0.19,2.18,0.569,2.975c0.377,0.797,0.904,1.476,1.564,2.017
				c0.648,0.53,1.412,0.967,2.27,1.297c0.834,0.324,1.734,0.621,2.687,0.886c0.858,0.225,1.785,0.479,2.776,0.758
				c0.966,0.273,1.855,0.633,2.652,1.065c0.771,0.422,1.422,0.991,1.93,1.69c0.494,0.685,0.744,1.595,0.744,2.707
				c0,0.945-0.201,1.793-0.6,2.521c-0.404,0.736-0.938,1.359-1.586,1.852c-0.658,0.496-1.395,0.875-2.193,1.121
				c-0.803,0.25-1.606,0.377-2.393,0.377c-3.383,0-6.006-1.271-7.797-3.781c-0.117-0.166-0.348-0.204-0.514-0.094l-1.015,0.676
				c-0.084,0.056-0.144,0.144-0.162,0.244c-0.018,0.1,0.007,0.201,0.063,0.285c1.048,1.471,2.394,2.603,4.003,3.357
				c1.6,0.751,3.403,1.133,5.362,1.133c1.197,0,2.336-0.178,3.385-0.525c1.054-0.352,1.992-0.867,2.794-1.53
				c0.807-0.671,1.454-1.496,1.926-2.459c0.474-0.966,0.713-2.072,0.713-3.288C182.746,35.302,182.514,34.259,182.055,33.417z"/>
		</g>
	</g>
</g>
<g id="Layer_2">
	<path fill-rule="evenodd" clip-rule="evenodd" fill="#FFFFFF" d="M49.137,24.833c0-3.729-10.508-6.749-23.475-6.749
		c-12.965,0-23.473,3.021-23.473,6.749c0,0.007,0.002,0.013,0.002,0.02H2.189c0.002,0.013,0.004,0.024,0.005,0.036
		c0.004,0.134,0.023,0.267,0.054,0.398c0.578,4.938,2.291,8.767,4.727,11.809c3.959,4.95,10.543,8.784,19.594,8.444
		c8.195-0.307,14.5-4.066,18.369-9.591c1.922-2.742,3.404-6.031,3.988-10l-0.113-0.002C49.022,25.583,49.137,25.212,49.137,24.833z"
		/>
	<g>
		<path d="M201.619,26.416h-12.227c-0.831,0-1.374,0.455-1.57,1.319l-0.153,0.711c-0.103,0.455-0.055,0.812,0.144,1.061
			c0.195,0.244,0.521,0.368,0.968,0.368h12.227c0.864,0,1.425-0.456,1.621-1.32l0.154-0.718c0.083-0.417,0.014-0.762-0.206-1.024
			S202.035,26.416,201.619,26.416z"/>
		<path d="M226.079,18.102c0.103-0.455,0.055-0.811-0.144-1.06c-0.195-0.244-0.521-0.368-0.968-0.368h-1.887
			c-1.762,0-3.331,0.299-4.665,0.889c-0.995,0.439-1.852,1.058-2.556,1.845l0.274-1.261c0.083-0.412,0.016-0.762-0.2-1.043
			c-0.22-0.285-0.544-0.429-0.963-0.429h-0.815c-0.4,0-0.756,0.132-1.057,0.393c-0.297,0.258-0.487,0.588-0.564,0.978l-5.152,24.228
			c-0.084,0.417-0.014,0.763,0.206,1.023c0.218,0.264,0.54,0.397,0.957,0.397h0.816c0.863,0,1.424-0.455,1.621-1.32l3.366-15.809
			c0.427-1.974,1.351-3.557,2.745-4.705c1.392-1.146,3.097-1.728,5.068-1.728h2.193c0.399,0,0.745-0.123,1.028-0.366
			c0.28-0.239,0.463-0.561,0.541-0.953L226.079,18.102z"/>
		<path d="M250.01,16.675h-0.867c-0.831,0-1.374,0.455-1.57,1.32l-0.374,1.757c-0.575-0.91-1.346-1.705-2.299-2.369
			c-1.159-0.808-2.906-1.218-5.192-1.218c-2.068,0-3.881,0.377-5.39,1.122c-1.503,0.744-2.798,1.724-3.85,2.915
			c-1.05,1.186-1.913,2.547-2.566,4.043c-0.647,1.481-1.166,2.979-1.542,4.448c-0.138,0.513-0.257,0.991-0.359,1.437
			c-0.104,0.445-0.19,0.934-0.259,1.444c-0.24,1.509-0.301,3.021-0.181,4.497c0.121,1.487,0.499,2.849,1.124,4.047
			c0.631,1.209,1.589,2.204,2.848,2.956c1.258,0.75,2.914,1.131,4.922,1.131c1.138,0,2.153-0.105,3.017-0.312
			c0.868-0.209,1.659-0.499,2.353-0.863c0.692-0.363,1.328-0.805,1.889-1.311c0.343-0.312,0.69-0.644,1.038-0.993l-0.33,1.549
			c-0.084,0.417-0.014,0.763,0.206,1.023c0.218,0.264,0.54,0.397,0.957,0.397h0.867c0.83,0,1.373-0.455,1.57-1.32l5.152-24.279
			c0.083-0.416,0.014-0.761-0.207-1.025C250.746,16.808,250.425,16.675,250.01,16.675z M239.707,19.623
			c1.375,0,2.489,0.253,3.313,0.753c0.824,0.502,1.454,1.148,1.873,1.92c0.423,0.781,0.679,1.684,0.762,2.681
			c0.082,1.012,0.023,2.026-0.175,3.016c-0.103,0.509-0.238,1.172-0.408,1.986c-0.175,0.835-0.323,1.481-0.456,1.979
			c-0.267,1.031-0.68,2.077-1.228,3.107c-0.546,1.025-1.252,1.975-2.099,2.821c-0.843,0.843-1.849,1.539-2.988,2.067
			c-1.133,0.525-2.428,0.792-3.848,0.792c-1.339,0-2.4-0.244-3.154-0.726c-0.75-0.478-1.302-1.134-1.638-1.949
			c-0.344-0.836-0.526-1.817-0.542-2.918c-0.018-1.116,0.076-2.294,0.278-3.508c0.065-0.494,0.142-0.97,0.227-1.414
			c0.084-0.435,0.21-0.903,0.379-1.408c0.332-1.199,0.78-2.368,1.334-3.475c0.547-1.095,1.229-2.079,2.023-2.923
			c0.79-0.84,1.718-1.526,2.759-2.038C237.152,19.88,238.359,19.623,239.707,19.623z"/>
		<path d="M278.147,20.088c-0.683-1.172-1.685-2.13-2.977-2.847c-1.291-0.714-2.962-1.077-4.966-1.077
			c-2.142,0-3.95,0.405-5.375,1.205c-1.154,0.647-2.205,1.419-3.132,2.298l2.376-11.256c0.103-0.455,0.054-0.812-0.145-1.06
			c-0.195-0.244-0.521-0.367-0.967-0.367h-0.867c-0.864,0-1.425,0.455-1.621,1.32l-7.191,33.962
			c-0.103,0.455-0.055,0.812,0.144,1.061c0.194,0.243,0.521,0.367,0.968,0.367h0.867c0.863,0,1.424-0.455,1.621-1.32l0.373-1.752
			c0.597,0.939,1.441,1.744,2.517,2.398c1.292,0.785,3.052,1.184,5.23,1.184c1.998,0,3.792-0.359,5.332-1.068
			c1.535-0.707,2.865-1.652,3.954-2.81c1.083-1.151,1.98-2.478,2.67-3.941c0.685-1.454,1.222-2.954,1.596-4.453
			c0.137-0.513,0.273-1.077,0.411-1.693c0.136-0.611,0.239-1.186,0.309-1.698c0.24-1.512,0.284-3.018,0.13-4.477
			C279.248,22.592,278.825,21.254,278.147,20.088z M265.003,40.747c-1.409,0-2.55-0.262-3.389-0.778
			c-0.841-0.518-1.488-1.198-1.925-2.021c-0.441-0.834-0.706-1.771-0.787-2.784c-0.083-1.025-0.023-2.066,0.178-3.108
			c0.065-0.5,0.185-1.163,0.354-1.972c0.168-0.806,0.321-1.471,0.457-1.983c0.23-0.99,0.643-2.005,1.224-3.018
			c0.576-1.006,1.323-1.921,2.219-2.717c0.894-0.794,1.928-1.458,3.072-1.974c1.137-0.51,2.415-0.768,3.8-0.768
			c1.44,0,2.58,0.253,3.387,0.752c0.803,0.499,1.387,1.164,1.738,1.978c0.358,0.832,0.55,1.803,0.566,2.888
			c0.017,1.102-0.077,2.271-0.279,3.482c-0.067,0.505-0.143,0.977-0.227,1.414c-0.084,0.432-0.209,0.901-0.376,1.401
			c-0.369,1.206-0.836,2.377-1.387,3.48c-0.549,1.096-1.237,2.078-2.049,2.922c-0.808,0.841-1.761,1.527-2.833,2.039
			C267.681,40.489,266.422,40.747,265.003,40.747z"/>
		<path d="M307.268,20.088c-0.683-1.172-1.685-2.13-2.977-2.847c-1.291-0.714-2.962-1.077-4.966-1.077
			c-2.142,0-3.95,0.405-5.375,1.205c-1.154,0.647-2.205,1.419-3.132,2.298l2.376-11.256c0.103-0.455,0.054-0.812-0.145-1.06
			c-0.195-0.244-0.521-0.367-0.967-0.367h-0.867c-0.864,0-1.425,0.455-1.621,1.32l-7.191,33.962
			c-0.103,0.455-0.055,0.812,0.144,1.061c0.194,0.243,0.521,0.367,0.968,0.367h0.867c0.863,0,1.424-0.455,1.621-1.32l0.373-1.752
			c0.597,0.939,1.441,1.744,2.517,2.398c1.292,0.785,3.052,1.184,5.23,1.184c1.998,0,3.792-0.359,5.332-1.068
			c1.535-0.707,2.865-1.652,3.954-2.81c1.083-1.151,1.98-2.478,2.67-3.941c0.685-1.454,1.222-2.954,1.596-4.453
			c0.137-0.513,0.273-1.077,0.411-1.693c0.136-0.611,0.239-1.186,0.309-1.698c0.24-1.512,0.284-3.018,0.13-4.477
			C308.368,22.592,307.945,21.254,307.268,20.088z M294.123,40.747c-1.409,0-2.55-0.262-3.389-0.778
			c-0.841-0.518-1.488-1.198-1.925-2.021c-0.441-0.834-0.706-1.771-0.787-2.784c-0.083-1.025-0.023-2.066,0.178-3.108
			c0.065-0.5,0.185-1.163,0.354-1.972c0.168-0.806,0.321-1.471,0.457-1.983c0.23-0.99,0.643-2.005,1.224-3.018
			c0.576-1.006,1.323-1.921,2.219-2.717c0.894-0.794,1.928-1.458,3.072-1.974c1.137-0.51,2.415-0.768,3.8-0.768
			c1.44,0,2.58,0.253,3.387,0.752c0.803,0.499,1.387,1.164,1.738,1.978c0.358,0.832,0.55,1.803,0.566,2.888
			c0.017,1.102-0.077,2.271-0.279,3.482c-0.067,0.505-0.143,0.977-0.227,1.414c-0.084,0.432-0.209,0.901-0.376,1.401
			c-0.369,1.206-0.836,2.377-1.387,3.48c-0.549,1.096-1.237,2.078-2.049,2.922c-0.808,0.841-1.761,1.527-2.833,2.039
			C296.801,40.489,295.542,40.747,294.123,40.747z"/>
		<path d="M319.623,16.675h-0.867c-0.864,0-1.425,0.455-1.621,1.32l-5.152,24.279c-0.084,0.417-0.014,0.763,0.206,1.023
			c0.218,0.264,0.54,0.397,0.957,0.397h0.867c0.83,0,1.373-0.455,1.57-1.32l5.15-24.272c0.103-0.455,0.055-0.811-0.144-1.06
			C320.396,16.798,320.07,16.675,319.623,16.675z"/>
		<path d="M322.173,6.985h-1.938c-0.403,0-0.752,0.134-1.036,0.398c-0.276,0.257-0.457,0.585-0.533,0.967l-0.464,1.962
			c-0.062,0.458,0.015,0.812,0.227,1.055c0.203,0.233,0.52,0.351,0.94,0.351h1.938c0.396,0,0.75-0.122,1.049-0.361
			c0.3-0.24,0.493-0.563,0.571-0.954l0.461-1.947c0.083-0.416,0.004-0.77-0.232-1.052C322.918,7.126,322.588,6.985,322.173,6.985z"
			/>
		<path d="M341.193,17.042c-0.195-0.244-0.521-0.367-0.967-0.367h-6.015l1.771-8.269c0.083-0.417,0.014-0.762-0.206-1.025
			c-0.219-0.263-0.541-0.396-0.957-0.396h-0.867c-0.831,0-1.374,0.455-1.57,1.32l-1.794,8.37h-3.775
			c-0.864,0-1.425,0.455-1.621,1.319l-0.157,0.733c-0.062,0.458,0.015,0.813,0.227,1.056c0.202,0.232,0.519,0.35,0.939,0.35h3.67
			l-3.149,14.739c-0.272,1.192-0.438,2.332-0.49,3.385c-0.052,1.073,0.11,2.021,0.482,2.82c0.381,0.815,1.046,1.464,1.977,1.929
			c0.913,0.457,2.237,0.689,3.937,0.689h2.499c0.832,0,1.375-0.455,1.57-1.319l0.153-0.711c0.103-0.455,0.055-0.812-0.144-1.06
			c-0.195-0.244-0.521-0.368-0.968-0.368h-3.06c-0.904,0-1.575-0.118-1.995-0.351c-0.402-0.224-0.655-0.542-0.773-0.971
			c-0.126-0.455-0.133-1.028-0.021-1.703c0.12-0.714,0.282-1.532,0.482-2.437l3.12-14.643h6.122c0.399,0,0.746-0.123,1.03-0.366
			c0.279-0.24,0.462-0.562,0.54-0.953l0.153-0.711C341.44,17.647,341.392,17.291,341.193,17.042z"/>
		<path d="M380.533,19.064c-0.753-0.945-1.712-1.673-2.851-2.165c-1.132-0.487-2.409-0.734-3.796-0.734
			c-2.008,0-3.816,0.448-5.376,1.333c-1.422,0.805-2.67,1.876-3.718,3.189c-0.525-1.401-1.427-2.498-2.686-3.262
			c-1.376-0.836-3.075-1.26-5.051-1.26c-1.733,0-3.189,0.31-4.327,0.922c-0.926,0.5-1.855,1.176-2.77,2.015l0.2-1
			c0.103-0.455,0.055-0.811-0.144-1.06c-0.194-0.244-0.52-0.368-0.967-0.368h-0.867c-0.864,0-1.425,0.455-1.621,1.32l-5.152,24.279
			c-0.084,0.417-0.014,0.763,0.206,1.023c0.218,0.264,0.54,0.397,0.957,0.397h0.867c0.83,0,1.373-0.455,1.57-1.32l3.061-14.384
			c0.332-1.626,0.852-2.986,1.545-4.043c0.696-1.061,1.467-1.924,2.292-2.567c0.818-0.64,1.683-1.097,2.568-1.36
			c1.856-0.55,3.422-0.506,4.736-0.006c0.662,0.253,1.215,0.694,1.643,1.311c0.433,0.625,0.701,1.478,0.798,2.533
			c0.1,1.071-0.02,2.445-0.352,4.082l-3.062,14.334c-0.084,0.417-0.014,0.763,0.206,1.023c0.218,0.264,0.54,0.397,0.957,0.397h0.867
			c0.83,0,1.373-0.455,1.57-1.32l3.061-14.333c0.331-1.626,0.852-2.995,1.546-4.07c0.696-1.077,1.466-1.948,2.289-2.591
			c0.82-0.64,1.686-1.097,2.57-1.36c1.937-0.574,3.565-0.488,4.865-0.005c0.675,0.252,1.217,0.69,1.61,1.303
			c0.4,0.625,0.645,1.479,0.727,2.537c0.082,1.076-0.045,2.451-0.378,4.085l-3.061,14.334c-0.084,0.417-0.014,0.763,0.205,1.023
			c0.218,0.264,0.54,0.397,0.958,0.397h0.867c0.83,0,1.373-0.455,1.57-1.32l3.163-14.843c0.378-1.859,0.446-3.512,0.204-4.912
			C381.793,21.207,381.287,20.011,380.533,19.064z"/>
		<path d="M412.236,17.042c-0.195-0.244-0.521-0.368-0.968-0.368h-0.867c-0.864,0-1.425,0.455-1.621,1.32l-0.373,1.752
			c-0.598-0.939-1.441-1.745-2.517-2.398c-1.292-0.785-3.052-1.184-5.229-1.184c-2.033,0-3.837,0.359-5.359,1.069
			c-1.519,0.708-2.839,1.653-3.927,2.809c-1.085,1.155-1.983,2.481-2.671,3.941c-0.683,1.451-1.221,2.95-1.596,4.453
			c-0.137,0.513-0.274,1.078-0.411,1.694c-0.138,0.621-0.242,1.194-0.309,1.697c-0.24,1.509-0.283,3.015-0.13,4.477
			c0.156,1.475,0.58,2.812,1.258,3.977c0.683,1.173,1.675,2.13,2.949,2.846c1.273,0.715,2.953,1.077,4.993,1.077
			c1.07,0,2.059-0.105,2.938-0.312c0.884-0.208,1.701-0.507,2.431-0.889c0.729-0.382,1.402-0.819,2.003-1.301
			c0.389-0.312,0.768-0.645,1.133-0.996l-2.374,11.251c-0.104,0.454-0.056,0.811,0.143,1.059c0.194,0.244,0.521,0.368,0.969,0.368
			h0.866c0.864,0,1.425-0.455,1.621-1.319l7.191-33.963C412.482,17.647,412.435,17.291,412.236,17.042z M400.661,19.623
			c1.406,0,2.546,0.262,3.388,0.779c0.842,0.518,1.489,1.198,1.925,2.021c0.44,0.832,0.705,1.769,0.787,2.785
			c0.083,1.029,0.024,2.07-0.177,3.108c-0.07,0.516-0.189,1.179-0.354,1.971c-0.174,0.831-0.322,1.478-0.457,1.983
			c-0.231,0.99-0.643,2.005-1.223,3.018c-0.58,1.011-1.326,1.925-2.219,2.718c-0.896,0.795-1.929,1.459-3.073,1.974
			c-1.134,0.509-2.411,0.768-3.799,0.768c-1.443,0-2.585-0.245-3.391-0.729c-0.8-0.479-1.384-1.136-1.735-1.949
			c-0.359-0.833-0.55-1.813-0.565-2.914c-0.018-1.116,0.076-2.294,0.278-3.508c0.065-0.494,0.142-0.97,0.227-1.414
			c0.082-0.428,0.208-0.897,0.379-1.408c0.332-1.199,0.797-2.366,1.382-3.469c0.579-1.095,1.286-2.08,2.102-2.927
			c0.807-0.84,1.761-1.526,2.834-2.039C398.035,19.881,399.277,19.623,400.661,19.623z"/>
	</g>
	<g>
		<g>
			<path fill-rule="evenodd" clip-rule="evenodd" fill="none" stroke="#000000" stroke-width="1.4" stroke-miterlimit="10" d="
				M48.926,25.949c-0.584,3.969-2.066,7.258-3.988,10c-3.869,5.524-10.174,9.284-18.369,9.591
				c-9.051,0.34-15.635-3.494-19.594-8.444c-2.508-3.133-4.26-7.09-4.785-12.243"/>
		</g>
	</g>
	
		<ellipse fill-rule="evenodd" clip-rule="evenodd" fill="none" stroke="#000000" stroke-width="1.4" stroke-miterlimit="10" cx="25.663" cy="24.833" rx="23.474" ry="6.748"/>
	<path fill-rule="evenodd" clip-rule="evenodd" fill="none" stroke="#000000" stroke-width="1.4" stroke-miterlimit="10" d="
		M44.393,24.411c0,2.323-8.381,4.205-18.729,4.205S6.932,26.734,6.932,24.411s8.385-4.206,18.732-4.206S44.393,22.087,44.393,24.411
		z"/>
	<path fill-rule="evenodd" clip-rule="evenodd" fill="none" stroke="#000000" stroke-width="1.4" stroke-miterlimit="10" d="
		M39.418,24.303c0,1.028-6.152,1.863-13.748,1.863c-7.592,0-13.748-0.835-13.748-1.863c0-1.03,6.156-1.864,13.748-1.864
		C33.266,22.439,39.418,23.273,39.418,24.303z"/>
	<g>
		<defs>
			<path id="SVGID_1_" d="M39.07,23.617c1.404-1.225,1.143-10.398,0.119-11.156c0.621-0.958-0.533-5.429-1.025-6.418
				c-0.189-1.663-2.062-3.986-4.861-4c-5.424-0.025-10.832-0.325-16.258-0.35c-2.467-0.012-3.512,1.828-3.15,3.406
				c-1.203,0.839-1.486,2.398-0.812,3.565c-1.26,1.101-1.223,3.112,0.125,4.162c-0.928,0.811-1.025,2.054-0.486,3.073
				c-1.084,0.91-1.271,2.46-0.523,3.574c-1.389,1.02-1.137,2.967,0.195,4.072c-0.297,0.12-0.471,0.246-0.471,0.376
				c0,0.81,6.156,1.468,13.748,1.468c7.596,0,13.748-0.658,13.748-1.468C39.418,23.817,39.271,23.716,39.07,23.617z"/>
		</defs>
		<clipPath id="SVGID_2_">
			<use xlink:href="#SVGID_1_"  overflow="visible"/>
		</clipPath>
		<g clip-path="url(#SVGID_2_)">
			<path fill="#FFFFFF" d="M34.246,25.503c0.5-1.217,0.633-3.548-0.879-5.729c1.861-2.672,3.852-9.555,1.595-14.226
				c-2.657,2.448-5.481,7.131-5.898,9.978c-1.37-0.2-4.078-0.462-7.09,0c-0.772-0.753-2.119-6.369-5.921-9.978
				c-1.983,5.265-0.374,11.314,1.637,14.567c0,0-1.486,2.283-0.889,5.387l-0.083,1.305l10.056,0.951l7.287-1.275L34.246,25.503z"/>
			<ellipse fill="#0A030B" cx="29.063" cy="19.878" rx="0.887" ry="0.817"/>
			<ellipse fill="#0A030B" cx="21.974" cy="19.878" rx="0.887" ry="0.817"/>
			
				<path fill="none" stroke="#231F20" stroke-width="1.4" stroke-linecap="round" stroke-linejoin="round" stroke-miterlimit="10" d="
				M16.801,24.791c-0.598-3.104,0.889-5.387,0.889-5.387c-2.011-3.253-3.62-9.303-1.637-14.568c3.802,3.609,5.148,9.225,5.921,9.978
				c3.012-0.461,5.72-0.2,7.09,0c0.417-2.846,3.241-7.528,5.898-9.978c2.257,4.671,0.267,11.554-1.595,14.226
				c1.512,2.181,1.379,4.513,0.879,5.729"/>
			
				<polyline fill="none" stroke="#231F20" stroke-width="1.4" stroke-linecap="round" stroke-linejoin="round" stroke-miterlimit="10" points="
				23.117,22.929 25.521,25.146 27.926,22.933 			"/>
		</g>
		
			<path clip-path="url(#SVGID_2_)" fill="none" stroke="#000000" stroke-width="1.4" stroke-linecap="round" stroke-linejoin="round" stroke-miterlimit="10" d="
			M32.002,14.793c1-3.25,1.217-3.824,1.217-3.824"/>
		
			<path clip-path="url(#SVGID_2_)" fill="none" stroke="#000000" stroke-width="1.4" stroke-linecap="round" stroke-linejoin="round" stroke-miterlimit="10" d="
			M18.658,14.793c-1-3.25-1.217-3.824-1.217-3.824"/>
	</g>
	<path fill-rule="evenodd" clip-rule="evenodd" fill="none" stroke="#000000" stroke-width="1.4" stroke-miterlimit="10" d="
		M6.932,24.411c0,0-0.381,0.63,0.795,4.774"/>
	
		<line fill-rule="evenodd" clip-rule="evenodd" fill="none" stroke="#000000" stroke-width="1.4" stroke-miterlimit="10" x1="11.915" y1="24.267" x2="12.428" y2="27.125"/>
	
		<line fill-rule="evenodd" clip-rule="evenodd" fill="none" stroke="#000000" stroke-width="1.4" stroke-miterlimit="10" x1="39.446" y1="24.411" x2="38.934" y2="27.267"/>
	<path fill-rule="evenodd" clip-rule="evenodd" fill="none" stroke="#000000" stroke-width="1.4" stroke-miterlimit="10" d="
		M44.295,24.411c0,0,0.381,0.63-0.795,4.774"/>
</g>
</svg>
