<?xml version="1.0" encoding="utf-8"?>
<!-- Generator: Adobe Illustrator 15.1.0, SVG Export Plug-In . SVG Version: 6.00 Build 0)  -->
<!DOCTYPE svg PUBLIC "-//W3C//DTD SVG 1.1//EN" "http://www.w3.org/Graphics/SVG/1.1/DTD/svg11.dtd">
<svg version="1.1" id="Layer_2" xmlns="http://www.w3.org/2000/svg" xmlns:xlink="http://www.w3.org/1999/xlink" x="0px" y="0px"
	 width="520.5px" height="78.747px" viewBox="0 0 520.5 78.747" enable-background="new 0 0 520.5 78.747" xml:space="preserve">
<g>
	<g>
		<path d="M57.76,26.957c-1.031-1.571-2.441-2.849-4.187-3.801c-1.77-0.952-3.953-1.433-6.5-1.433c-3.38,0-6.443,1.027-9.103,3.05
			c-2.27,1.726-3.99,4.105-5.128,7.092c-0.257-1.032-0.587-2.013-0.983-2.931c-0.616-1.423-1.434-2.683-2.439-3.741
			c-1.013-1.069-2.28-1.924-3.769-2.542c-1.482-0.615-3.245-0.927-5.24-0.927c-1.556,0-3.09,0.252-4.564,0.753
			c-1.471,0.499-2.852,1.247-4.102,2.218c-1.245,0.968-2.377,2.157-3.368,3.534c-0.564,0.783-1.061,1.633-1.485,2.545
			c0-0.012,0-0.022,0-0.034L6.73,25.38c-0.031-0.818-0.07-1.501-0.125-2.048c-0.026-0.274-0.257-0.483-0.534-0.483H4.299
			c-0.151,0-0.295,0.062-0.394,0.176c-0.104,0.112-0.154,0.262-0.138,0.412c0.05,0.535,0.104,1.2,0.159,1.997
			c0.052,0.801,0.091,1.641,0.119,2.519l0.081,2.62c0.027,0.854,0.04,1.572,0.04,2.159v27.715c0,0.299,0.241,0.537,0.538,0.537
			h1.771c0.297,0,0.537-0.238,0.537-0.537V41.921c0-2.775,0.357-5.279,1.061-7.449c0.7-2.157,1.673-4.01,2.887-5.511
			c1.206-1.487,2.636-2.646,4.249-3.441c1.609-0.791,3.36-1.192,5.201-1.192c2.083,0,3.813,0.445,5.14,1.321
			c1.346,0.891,2.415,2.01,3.173,3.324c0.769,1.333,1.306,2.844,1.586,4.499c0.291,1.694,0.437,3.292,0.437,4.745v22.23
			c0,0.299,0.241,0.537,0.537,0.537h1.771c0.296,0,0.536-0.238,0.536-0.537V41.921c0-2.773,0.373-5.275,1.102-7.44
			c0.728-2.165,1.713-4.02,2.927-5.52c1.206-1.489,2.635-2.646,4.252-3.441c1.611-0.791,3.36-1.192,5.197-1.192
			c2.088,0,3.834,0.445,5.184,1.323c1.38,0.893,2.481,2.014,3.286,3.335c0.814,1.336,1.396,2.85,1.732,4.503
			c0.336,1.677,0.508,3.27,0.508,4.727v22.23c0,0.299,0.239,0.537,0.533,0.537h1.762c0.293,0,0.532-0.238,0.532-0.537V38.056
			c0-1.964-0.218-3.93-0.656-5.846C59.514,30.276,58.777,28.508,57.76,26.957z"/>
	</g>
	<g>
		<path d="M76.312,22.85H74.54c-0.297,0-0.536,0.241-0.536,0.538v37.059c0,0.299,0.239,0.537,0.536,0.537h1.772
			c0.297,0,0.535-0.238,0.535-0.537V23.388C76.848,23.091,76.609,22.85,76.312,22.85z"/>
	</g>
	<g>
		<path d="M73.759,5.528c-0.479,0.479-0.725,1.095-0.725,1.83c0,0.789,0.245,1.431,0.725,1.91c0.476,0.476,1.04,0.721,1.667,0.721
			c0.566,0,1.113-0.239,1.615-0.708c0.516-0.479,0.775-1.127,0.775-1.923c0-0.734-0.241-1.349-0.722-1.832
			C76.134,4.572,74.715,4.572,73.759,5.528z"/>
	</g>
	<g>
		<path d="M107.748,21.813c-0.309-0.06-0.584-0.09-0.828-0.09h-0.728c-2.839,0-5.519,0.888-7.962,2.638
			c-1.904,1.364-3.42,3.417-4.516,6.125l-0.152-5.103c-0.029-0.818-0.07-1.502-0.122-2.048c-0.031-0.275-0.263-0.484-0.537-0.484
			h-1.769c-0.152,0-0.293,0.062-0.396,0.176c-0.102,0.112-0.153,0.263-0.138,0.412c0.049,0.535,0.102,1.201,0.156,1.998
			c0.055,0.8,0.089,1.641,0.121,2.52l0.082,2.619c0.025,0.854,0.036,1.572,0.036,2.158v27.714c0,0.299,0.241,0.537,0.539,0.537
			h1.771c0.3,0,0.537-0.238,0.537-0.537V41.278c0-1.995,0.253-4.025,0.749-6.038c0.495-2.005,1.272-3.851,2.308-5.484
			c1.027-1.615,2.353-2.942,3.942-3.941c1.569-0.987,3.503-1.489,5.753-1.489h0.445c0.143,0,0.3,0.021,0.475,0.065
			c0.155,0.039,0.331,0.003,0.461-0.099c0.131-0.101,0.207-0.258,0.207-0.423v-1.53C108.182,22.083,108,21.861,107.748,21.813z"/>
	</g>
	<g>
		<path d="M144.409,27.357c-1.762-1.761-3.895-3.157-6.338-4.144c-2.443-0.988-5.152-1.489-8.051-1.489
			c-2.887,0-5.583,0.501-8.001,1.49c-2.417,0.988-4.534,2.383-6.298,4.146c-1.76,1.764-3.145,3.898-4.107,6.353
			c-0.957,2.442-1.445,5.18-1.445,8.131s0.488,5.7,1.445,8.168c0.963,2.479,2.346,4.64,4.105,6.426
			c1.764,1.792,3.883,3.201,6.3,4.189c2.417,0.987,5.116,1.49,8.001,1.49c2.899,0,5.608-0.503,8.051-1.49
			c2.447-0.988,4.578-2.397,6.342-4.189c1.762-1.786,3.145-3.947,4.105-6.426c0.96-2.468,1.449-5.217,1.449-8.168
			s-0.489-5.688-1.451-8.131C147.558,31.255,146.171,29.121,144.409,27.357z M130.02,59.509c-2.635,0-5.026-0.473-7.092-1.404
			c-2.072-0.931-3.871-2.205-5.346-3.783c-1.475-1.579-2.617-3.453-3.393-5.578c-0.781-2.128-1.176-4.451-1.176-6.902
			c0-2.393,0.395-4.689,1.176-6.828c0.775-2.124,1.918-4,3.393-5.581c1.475-1.577,3.271-2.834,5.342-3.738
			c2.065-0.907,4.46-1.367,7.096-1.367c2.648,0,5.056,0.46,7.152,1.367c2.098,0.906,3.907,2.163,5.381,3.738
			c1.473,1.581,2.614,3.457,3.392,5.581c0.782,2.139,1.176,4.438,1.176,6.828c0,2.447-0.394,4.771-1.176,6.902
			c-0.777,2.125-1.916,4.004-3.392,5.578c-1.474,1.578-3.286,2.849-5.384,3.783C135.073,59.036,132.668,59.509,130.02,59.509z"/>
	</g>
	<g>
		<path d="M181.597,46.335c-0.654-1.191-1.551-2.203-2.655-2.996c-1.077-0.773-2.342-1.437-3.752-1.961
			c-1.38-0.513-2.819-0.965-4.286-1.349c-1.531-0.366-2.957-0.756-4.241-1.157c-1.235-0.391-2.301-0.867-3.167-1.43
			c-0.832-0.535-1.488-1.254-1.953-2.139c-0.467-0.881-0.703-2.101-0.703-3.62c0-1.343,0.286-2.497,0.854-3.427
			c0.569-0.946,1.299-1.716,2.169-2.286c0.884-0.58,1.874-1.002,2.933-1.255c1.082-0.258,2.119-0.389,3.098-0.389
			c2.105,0,3.918,0.374,5.398,1.112c1.477,0.737,2.824,1.893,4.002,3.43c0.166,0.215,0.463,0.271,0.697,0.139l1.528-0.886
			c0.129-0.076,0.222-0.202,0.257-0.35c0.028-0.147,0-0.301-0.089-0.423c-2.618-3.733-6.587-5.625-11.794-5.625
			c-1.443,0-2.891,0.211-4.301,0.625c-1.421,0.419-2.711,1.042-3.829,1.852c-1.131,0.822-2.054,1.871-2.733,3.117
			c-0.687,1.257-1.033,2.753-1.033,4.446c0,1.692,0.275,3.123,0.816,4.264c0.54,1.14,1.295,2.112,2.24,2.886
			c0.928,0.761,2.021,1.386,3.248,1.857c1.192,0.464,2.48,0.889,3.844,1.267c1.229,0.322,2.555,0.687,3.974,1.084
			c1.384,0.392,2.657,0.908,3.796,1.527c1.105,0.605,2.035,1.416,2.764,2.418c0.706,0.982,1.065,2.285,1.065,3.874
			c0,1.355-0.288,2.565-0.86,3.61c-0.578,1.053-1.34,1.945-2.268,2.65c-0.943,0.709-1.996,1.253-3.141,1.605
			c-1.148,0.356-2.299,0.539-3.426,0.539c-4.84,0-8.596-1.818-11.159-5.414c-0.167-0.236-0.497-0.291-0.733-0.134l-1.453,0.966
			c-0.12,0.084-0.207,0.209-0.231,0.354c-0.022,0.143,0.011,0.285,0.092,0.406c1.497,2.105,3.425,3.728,5.726,4.807
			c2.293,1.077,4.874,1.619,7.676,1.619c1.715,0,3.346-0.254,4.848-0.751c1.508-0.504,2.85-1.241,3.998-2.188
			c1.152-0.962,2.081-2.143,2.758-3.52c0.676-1.385,1.018-2.967,1.018-4.709C182.589,49.032,182.257,47.541,181.597,46.335z"/>
	</g>
</g>
<g>
	<path d="M209.603,36.313h-17.5c-1.19,0-1.969,0.651-2.248,1.889l-0.221,1.016c-0.148,0.652-0.079,1.164,0.205,1.52
		c0.279,0.351,0.744,0.527,1.386,0.527h17.499c1.237,0,2.042-0.65,2.322-1.891l0.22-1.027c0.12-0.596,0.021-1.088-0.296-1.465
		C210.655,36.505,210.196,36.313,209.603,36.313z"/>
	<path d="M244.612,24.408c0.146-0.649,0.08-1.16-0.206-1.516c-0.28-0.349-0.747-0.526-1.386-0.526h-2.7
		c-2.522,0-4.769,0.428-6.677,1.273c-1.424,0.628-2.651,1.513-3.659,2.64l0.392-1.806c0.121-0.589,0.025-1.09-0.285-1.493
		c-0.313-0.406-0.777-0.613-1.381-0.613h-1.162c-0.574,0-1.085,0.189-1.514,0.563c-0.425,0.37-0.699,0.842-0.811,1.399
		l-7.374,34.686c-0.12,0.596-0.02,1.091,0.294,1.466c0.314,0.375,0.775,0.566,1.369,0.566h1.172c1.234,0,2.037-0.652,2.32-1.891
		l4.82-22.627c0.607-2.828,1.932-5.096,3.927-6.739c1.991-1.641,4.431-2.474,7.255-2.474h3.139c0.572,0,1.065-0.176,1.475-0.525
		c0.4-0.342,0.66-0.803,0.771-1.363L244.612,24.408z"/>
	<path d="M278.864,22.366h-1.244c-1.188,0-1.963,0.651-2.242,1.89l-0.539,2.514c-0.824-1.301-1.926-2.439-3.29-3.391
		c-1.657-1.156-4.159-1.743-7.435-1.743c-2.956,0-5.551,0.541-7.709,1.606c-2.156,1.064-4.006,2.467-5.514,4.17
		c-1.501,1.699-2.738,3.646-3.672,5.79c-0.927,2.122-1.668,4.267-2.206,6.37c-0.198,0.734-0.368,1.418-0.515,2.056
		c-0.149,0.64-0.273,1.337-0.371,2.067c-0.344,2.162-0.431,4.327-0.259,6.438c0.175,2.129,0.714,4.076,1.607,5.793
		c0.903,1.73,2.276,3.155,4.077,4.229c1.801,1.074,4.17,1.621,7.047,1.621c1.627,0,3.08-0.153,4.316-0.446
		c1.243-0.304,2.376-0.718,3.365-1.237c0.992-0.52,1.905-1.151,2.704-1.876c0.493-0.445,0.987-0.919,1.486-1.421l-0.474,2.218
		c-0.119,0.596-0.018,1.091,0.297,1.466c0.312,0.375,0.771,0.566,1.369,0.566h1.24c1.191,0,1.967-0.652,2.248-1.891l7.374-34.755
		c0.12-0.596,0.021-1.09-0.293-1.467C279.918,22.557,279.457,22.366,278.864,22.366z M264.114,26.586
		c1.971,0,3.564,0.362,4.744,1.079c1.183,0.719,2.082,1.644,2.68,2.748c0.609,1.119,0.974,2.411,1.092,3.84
		c0.119,1.45,0.036,2.903-0.25,4.32c-0.145,0.729-0.34,1.678-0.582,2.844c-0.251,1.195-0.461,2.119-0.652,2.832
		c-0.383,1.474-0.975,2.971-1.758,4.446c-0.785,1.467-1.791,2.825-3.004,4.04c-1.205,1.205-2.646,2.201-4.277,2.954
		c-1.621,0.755-3.477,1.138-5.506,1.138c-1.917,0-3.438-0.35-4.519-1.039c-1.07-0.684-1.862-1.622-2.343-2.79
		c-0.491-1.198-0.752-2.601-0.775-4.178c-0.025-1.599,0.107-3.282,0.397-5.02c0.095-0.708,0.204-1.388,0.325-2.024
		c0.119-0.623,0.3-1.293,0.541-2.014c0.477-1.719,1.119-3.393,1.911-4.979c0.781-1.566,1.759-2.978,2.896-4.186
		c1.129-1.203,2.458-2.186,3.948-2.919C260.46,26.954,262.187,26.586,264.114,26.586z"/>
	<path d="M319.14,27.251c-0.979-1.677-2.41-3.048-4.262-4.073c-1.846-1.022-4.24-1.542-7.106-1.542c-3.067,0-5.655,0.58-7.694,1.724
		c-1.652,0.928-3.156,2.032-4.481,3.29l3.398-16.11c0.148-0.652,0.077-1.162-0.206-1.519c-0.28-0.348-0.745-0.525-1.385-0.525h-1.24
		c-1.235,0-2.038,0.652-2.32,1.892l-10.295,48.614c-0.146,0.65-0.076,1.165,0.206,1.52c0.278,0.349,0.745,0.525,1.386,0.525h1.242
		c1.236,0,2.037-0.652,2.318-1.891l0.535-2.508c0.855,1.345,2.062,2.498,3.602,3.434c1.85,1.123,4.368,1.695,7.486,1.695
		c2.86,0,5.43-0.516,7.635-1.531c2.193-1.011,4.1-2.364,5.658-4.019c1.552-1.649,2.833-3.548,3.821-5.642
		c0.98-2.082,1.749-4.231,2.283-6.375c0.194-0.733,0.392-1.541,0.59-2.422c0.192-0.879,0.341-1.699,0.44-2.432
		c0.346-2.165,0.408-4.322,0.187-6.414C320.714,30.836,320.11,28.921,319.14,27.251z M300.323,56.827
		c-2.018,0-3.646-0.374-4.852-1.115c-1.201-0.741-2.127-1.714-2.753-2.894c-0.632-1.191-1.009-2.532-1.127-3.985
		c-0.12-1.465-0.034-2.957,0.254-4.446c0.095-0.717,0.265-1.667,0.506-2.823c0.243-1.154,0.459-2.104,0.655-2.84
		c0.329-1.417,0.922-2.869,1.751-4.32c0.825-1.444,1.894-2.754,3.175-3.894c1.279-1.137,2.762-2.087,4.4-2.824
		c1.626-0.731,3.455-1.1,5.438-1.1c2.06,0,3.691,0.362,4.847,1.077c1.148,0.713,1.984,1.666,2.488,2.831
		c0.514,1.189,0.787,2.583,0.811,4.136c0.025,1.581-0.109,3.252-0.402,4.989c-0.092,0.722-0.201,1.397-0.323,2.022
		c-0.12,0.618-0.298,1.291-0.537,2.006c-0.528,1.727-1.196,3.404-1.985,4.984c-0.786,1.567-1.77,2.974-2.932,4.179
		c-1.156,1.202-2.52,2.187-4.055,2.921C304.159,56.458,302.354,56.827,300.323,56.827z"/>
	<path d="M360.817,27.251c-0.975-1.677-2.408-3.048-4.258-4.073c-1.848-1.022-4.239-1.542-7.109-1.542
		c-3.064,0-5.654,0.58-7.691,1.724c-1.654,0.928-3.157,2.032-4.482,3.29l3.398-16.11c0.146-0.652,0.078-1.162-0.207-1.519
		c-0.277-0.348-0.744-0.525-1.385-0.525h-1.24c-1.236,0-2.039,0.652-2.319,1.892l-10.292,48.614c-0.15,0.65-0.079,1.165,0.203,1.52
		c0.278,0.349,0.744,0.525,1.386,0.525h1.242c1.231,0,2.036-0.652,2.319-1.891l0.533-2.508c0.854,1.345,2.062,2.498,3.604,3.434
		c1.848,1.123,4.364,1.695,7.485,1.695c2.862,0,5.43-0.516,7.632-1.531c2.198-1.011,4.102-2.364,5.658-4.019
		c1.552-1.649,2.838-3.548,3.824-5.642c0.979-2.082,1.748-4.231,2.283-6.375c0.197-0.733,0.393-1.541,0.59-2.422
		c0.194-0.879,0.341-1.699,0.439-2.432c0.344-2.165,0.407-4.322,0.188-6.414C362.395,30.836,361.79,28.921,360.817,27.251z
		 M342.004,56.827c-2.017,0-3.649-0.374-4.85-1.115c-1.204-0.741-2.131-1.714-2.757-2.894c-0.631-1.191-1.009-2.532-1.125-3.985
		c-0.118-1.465-0.034-2.957,0.254-4.446c0.094-0.717,0.266-1.667,0.508-2.823c0.238-1.154,0.459-2.104,0.653-2.84
		c0.332-1.417,0.919-2.869,1.749-4.32c0.828-1.444,1.895-2.754,3.178-3.894c1.279-1.137,2.76-2.087,4.398-2.824
		c1.625-0.731,3.457-1.1,5.438-1.1c2.062,0,3.693,0.362,4.849,1.077c1.149,0.713,1.983,1.666,2.487,2.831
		c0.514,1.189,0.785,2.583,0.809,4.136c0.026,1.581-0.107,3.252-0.397,4.989c-0.097,0.722-0.205,1.397-0.325,2.022
		c-0.121,0.618-0.299,1.291-0.535,2.006c-0.531,1.727-1.197,3.404-1.986,4.984c-0.785,1.567-1.773,2.974-2.934,4.179
		c-1.154,1.202-2.52,2.187-4.054,2.921C345.838,56.458,344.036,56.827,342.004,56.827z"/>
	<path d="M378.503,22.366h-1.24c-1.236,0-2.037,0.651-2.32,1.89l-7.375,34.758c-0.119,0.596-0.019,1.091,0.296,1.466
		c0.313,0.375,0.772,0.566,1.37,0.566h1.24c1.189,0,1.965-0.652,2.246-1.891l7.372-34.748c0.147-0.649,0.078-1.16-0.206-1.516
		C379.607,22.542,379.145,22.366,378.503,22.366z"/>
	<path d="M382.151,8.496h-2.775c-0.574,0-1.074,0.192-1.48,0.572c-0.395,0.368-0.655,0.837-0.762,1.383l-0.666,2.809
		c-0.089,0.655,0.021,1.162,0.324,1.511c0.292,0.332,0.743,0.501,1.346,0.501h2.774c0.567,0,1.073-0.173,1.498-0.516
		c0.435-0.344,0.71-0.808,0.82-1.366l0.661-2.786c0.116-0.596,0.006-1.102-0.332-1.505C383.218,8.699,382.746,8.496,382.151,8.496z"
		/>
	<path d="M409.377,22.891c-0.279-0.349-0.742-0.525-1.384-0.525h-8.607l2.535-11.835c0.117-0.596,0.021-1.09-0.297-1.467
		c-0.311-0.376-0.773-0.567-1.367-0.567h-1.242c-1.189,0-1.967,0.652-2.248,1.89l-2.566,11.98h-5.404
		c-1.234,0-2.04,0.651-2.319,1.889l-0.227,1.048c-0.089,0.656,0.02,1.165,0.323,1.512c0.291,0.333,0.742,0.501,1.346,0.501h5.254
		l-4.507,21.104c-0.394,1.705-0.629,3.335-0.702,4.845c-0.073,1.532,0.156,2.893,0.689,4.037c0.543,1.163,1.495,2.093,2.828,2.757
		c1.309,0.654,3.203,0.988,5.635,0.988h3.578c1.191,0,1.969-0.652,2.246-1.888l0.223-1.017c0.145-0.65,0.078-1.164-0.208-1.518
		c-0.28-0.352-0.743-0.525-1.386-0.525h-4.379c-1.293,0-2.252-0.172-2.857-0.503c-0.574-0.321-0.935-0.777-1.106-1.391
		c-0.18-0.651-0.188-1.47-0.028-2.437c0.174-1.021,0.402-2.191,0.691-3.488l4.465-20.965h8.764c0.572,0,1.068-0.176,1.476-0.525
		c0.397-0.343,0.657-0.803,0.772-1.363l0.219-1.02C409.731,23.758,409.663,23.248,409.377,22.891z"/>
	<path d="M465.687,25.785c-1.078-1.353-2.45-2.394-4.081-3.098c-1.619-0.698-3.448-1.051-5.433-1.051
		c-2.873,0-5.461,0.642-7.695,1.908c-2.035,1.153-3.82,2.687-5.321,4.564c-0.751-2.005-2.04-3.576-3.845-4.669
		c-1.965-1.196-4.398-1.803-7.229-1.803c-2.483,0-4.565,0.444-6.194,1.319c-1.324,0.716-2.655,1.683-3.962,2.885l0.285-1.433
		c0.146-0.649,0.077-1.16-0.204-1.516c-0.28-0.349-0.743-0.526-1.384-0.526h-1.24c-1.24,0-2.043,0.651-2.322,1.89l-7.374,34.758
		c-0.12,0.596-0.021,1.091,0.296,1.466c0.311,0.375,0.773,0.566,1.369,0.566h1.24c1.188,0,1.967-0.652,2.248-1.891l4.38-20.586
		c0.476-2.33,1.22-4.278,2.212-5.795c0.998-1.519,2.102-2.754,3.28-3.673c1.17-0.915,2.409-1.571,3.677-1.948
		c2.657-0.785,4.896-0.724,6.779-0.008c0.945,0.361,1.738,0.993,2.349,1.876c0.622,0.896,1.003,2.116,1.142,3.626
		c0.146,1.536-0.026,3.505-0.502,5.849l-4.382,20.517c-0.12,0.596-0.019,1.091,0.296,1.466c0.312,0.375,0.773,0.566,1.37,0.566h1.24
		c1.188,0,1.966-0.652,2.248-1.891l4.381-20.513c0.474-2.329,1.218-4.292,2.212-5.835c0.998-1.54,2.098-2.787,3.276-3.706
		c1.174-0.915,2.412-1.571,3.679-1.948c2.773-0.821,5.104-0.698,6.965-0.006c0.966,0.359,1.742,0.987,2.306,1.864
		c0.573,0.895,0.921,2.116,1.04,3.629c0.118,1.543-0.065,3.515-0.542,5.855l-4.381,20.517c-0.119,0.596-0.021,1.091,0.296,1.466
		c0.311,0.375,0.773,0.566,1.368,0.566h1.242c1.188,0,1.965-0.652,2.249-1.891l4.527-21.244c0.54-2.665,0.638-5.033,0.291-7.036
		C467.489,28.853,466.766,27.14,465.687,25.785z"/>
	<path d="M511.063,22.892c-0.279-0.349-0.744-0.526-1.385-0.526h-1.243c-1.234,0-2.035,0.651-2.319,1.889l-0.532,2.508
		c-0.857-1.344-2.063-2.497-3.604-3.432c-1.847-1.125-4.367-1.695-7.486-1.695c-2.909,0-5.492,0.514-7.668,1.531
		c-2.173,1.012-4.066,2.365-5.621,4.02c-1.553,1.652-2.839,3.551-3.823,5.64c-0.976,2.081-1.747,4.229-2.285,6.381
		c-0.193,0.732-0.392,1.544-0.588,2.426c-0.198,0.889-0.347,1.709-0.443,2.428c-0.343,2.16-0.402,4.314-0.183,6.41
		c0.224,2.107,0.83,4.023,1.798,5.689c0.979,1.678,2.399,3.049,4.224,4.074c1.822,1.023,4.226,1.541,7.146,1.541
		c1.532,0,2.945-0.153,4.205-0.446c1.266-0.299,2.436-0.726,3.48-1.274c1.043-0.543,2.006-1.17,2.867-1.86
		c0.556-0.444,1.1-0.923,1.622-1.426l-3.399,16.105c-0.148,0.646-0.08,1.159,0.207,1.514c0.277,0.349,0.742,0.527,1.385,0.527h1.236
		c1.239,0,2.044-0.653,2.322-1.89l10.293-48.619C511.415,23.758,511.348,23.248,511.063,22.892z M494.494,26.586
		c2.016,0,3.645,0.375,4.851,1.115c1.206,0.741,2.132,1.714,2.755,2.892c0.63,1.189,1.012,2.533,1.128,3.988
		c0.117,1.477,0.034,2.967-0.253,4.453c-0.103,0.738-0.272,1.687-0.507,2.818c-0.25,1.191-0.462,2.115-0.657,2.842
		c-0.329,1.418-0.92,2.867-1.748,4.318c-0.832,1.447-1.898,2.756-3.175,3.889c-1.282,1.137-2.762,2.088-4.401,2.826
		c-1.623,0.729-3.45,1.1-5.437,1.1c-2.064,0-3.699-0.354-4.852-1.045c-1.146-0.687-1.981-1.625-2.483-2.789
		c-0.52-1.193-0.788-2.596-0.811-4.173c-0.027-1.599,0.108-3.282,0.397-5.02c0.095-0.708,0.204-1.388,0.326-2.024
		c0.115-0.611,0.299-1.284,0.54-2.014c0.477-1.719,1.143-3.39,1.979-4.969c0.827-1.568,1.843-2.98,3.009-4.194
		c1.154-1.203,2.52-2.184,4.056-2.918C490.74,26.955,492.515,26.586,494.494,26.586z"/>
</g>
</svg>
